<?xml version="1.0" encoding="UTF-8"?>
<svg id="Capa_1" data-name="Capa 1" xmlns="http://www.w3.org/2000/svg" xmlns:xlink="http://www.w3.org/1999/xlink" viewBox="0 0 500 500">
  <defs>
    <style>
      .cls-1 {
        fill: #995a9c;
      }

      .cls-1, .cls-2, .cls-3, .cls-4, .cls-5, .cls-6, .cls-7, .cls-8 {
        stroke-width: 0px;
      }

      .cls-9 {
        fill: none;
        stroke: #000;
        stroke-miterlimit: 10;
        stroke-width: 9.27px;
      }

      .cls-2 {
        fill: #4d4d4d;
      }

      .cls-3 {
        opacity: .18;
      }

      .cls-5 {
        fill: #fff;
      }

      .cls-6 {
        opacity: .11;
      }

      .cls-7 {
        fill: #cbcbcb;
      }

      .cls-10 {
        clip-path: url(#clippath);
      }

      .cls-8 {
        fill: #f9ffff;
      }
    </style>
    <clipPath id="clippath">
      <path class="cls-9" d="m118.89,443.06c4.92,5.27,12.49,7.92,20.19,5.93l14-3.62c9.08-2.35,15.43-10.54,15.43-19.92v-25.81c0-10.02,7.22-18.58,17.1-20.28l14.01-2.4c12.57-2.15,24.05,7.53,24.05,20.28v4.75c0,13.28,12.39,23.08,25.31,20.02l15-3.55c9.51-2.25,16.12-10.87,15.83-20.63l-.44-14.74c-.31-10.36,7.13-19.33,17.37-20.94l13.47-2.12c12.48-1.96,23.77,7.69,23.77,20.32s12.15,22.91,24.98,20.09l24.16-5.3v-187.32c.5-4.69.77-9.45.77-14.27,0-73.39-59.49-132.88-132.88-132.88S118.12,120.17,118.12,193.55c0,4.82.27,9.58.77,14.27v235.24Z"/>
    </clipPath>
  </defs>
  <g>
    <g class="cls-10">
      <g>
        <polygon class="cls-2" points="46.46 93.5 46.46 159.1 46.46 224.71 401.71 147.53 401.71 81.92 401.71 16.31 46.46 93.5"/>
        <polygon class="cls-7" points="401.71 234.48 46.46 311.67 46.46 224.71 401.71 147.53 401.71 234.48"/>
        <polygon class="cls-8" points="401.71 317.84 46.46 395.03 46.46 308.08 401.71 230.89 401.71 317.84"/>
        <polygon class="cls-1" points="401.71 399.95 46.46 477.14 46.46 383.78 401.71 306.59 401.71 399.95"/>
      </g>
      <path class="cls-6" d="m200.1,50.96s-48.3,83.66-50.63,131.67c-2.33,48.01,0,309.12,0,309.12h-59.45l10.49-396.32,99.59-44.47Z"/>
    </g>
    <path class="cls-9" d="m118.89,443.06c4.92,5.27,12.49,7.92,20.19,5.93l14-3.62c9.08-2.35,15.43-10.54,15.43-19.92v-25.81c0-10.02,7.22-18.58,17.1-20.28l14.01-2.4c12.57-2.15,24.05,7.53,24.05,20.28v4.75c0,13.28,12.39,23.08,25.31,20.02l15-3.55c9.51-2.25,16.12-10.87,15.83-20.63l-.44-14.74c-.31-10.36,7.13-19.33,17.37-20.94l13.47-2.12c12.48-1.96,23.77,7.69,23.77,20.32s12.15,22.91,24.98,20.09l24.16-5.3v-187.32c.5-4.69.77-9.45.77-14.27,0-73.39-59.49-132.88-132.88-132.88S118.12,120.17,118.12,193.55c0,4.82.27,9.58.77,14.27v235.24Z"/>
  </g>
  <g>
    <circle class="cls-4" cx="201.94" cy="179.62" r="21.45"/>
    <circle class="cls-4" cx="344.49" cy="180.71" r="21.45"/>
    <circle class="cls-3" cx="201.94" cy="183.69" r="21.45"/>
    <circle class="cls-3" cx="344.49" cy="184.78" r="21.45"/>
    <ellipse class="cls-5" cx="353.75" cy="177.65" rx="5.62" ry="6.04"/>
    <ellipse class="cls-5" cx="213.07" cy="177.65" rx="5.62" ry="6.04"/>
  </g>
</svg>